<svg width="284" height="284" viewBox="0 0 284 284" fill="none" xmlns="http://www.w3.org/2000/svg">
<circle cx="142" cy="142" r="142" fill="#269BFE"/>
<path d="M70.26 239.71L69.87 239.21L68.8 237.85L68.23 237.12L66.86 235.35L66.14 234.41L64.52 232.3L63.68 231.21L61.86 228.84L60 226.41L55.93 221.07L49.75 212.92L35 193.41V169.13V166.59L35.01 162.25L35.02 160.19L35.05 156.76L35.07 155.15L35.13 152.54L35.17 151.32L35.26 149.42L35.31 148.55L35.44 147.27L35.51 146.7L35.69 145.94L35.78 145.62L36.01 145.29L36.41 145.18L36.48 145.19L37.07 145.83L37.44 146.24L38.58 147.59L39.21 148.35L40.82 150.33L41.68 151.39L43.7 153.91L44.75 155.23L47.1 158.19L48.3 159.72L50.91 163.04L52.24 164.74L55.04 168.32L56.46 170.14L59.38 173.9L62.32 177.68L68.25 185.39L71.18 189.2L76.68 196.42L78 198.16L80.47 201.43L81.66 203.01L83.82 205.91L84.86 207.3L86.65 209.73L88.83 212.75L91.14 216L121.82 215.95L152.5 215.9L179.81 189.19L207.12 162.48L190.45 140.99L188.16 138.04L183.85 132.55L182.81 131.23L180.87 128.78L179.93 127.59L178.21 125.45L177.38 124.42L175.94 122.63L175.25 121.79L174.13 120.43L173.61 119.81L172.85 118.94L172.2 118.25L171.97 118.07L171.07 117.75L170.55 117.6L169.18 117.36L168.45 117.25L166.75 117.09L164 117H163.26L162.01 117.02L161.41 117.03L160.39 117.09L159.43 117.16L157.99 117.47L157.33 117.66L156.21 118.31L154.44 119.79L152.95 121.2L149.75 124.16L148.12 125.66L144.77 128.66L143.1 130.16L139.78 133.07L138.14 134.49L135.02 137.15L133.51 138.43L130.77 140.69L129.47 141.75L127.29 143.46L126.79 143.85L125.92 144.49L125.51 144.79L124.84 145.25L124.53 145.45L124.08 145.7L123.68 145.83L123.58 145.8L123.2 145.54L122.98 145.37L122.38 144.84L121.73 144.25L119.94 142.46L118.98 141.49L116.75 139.14L115.62 137.93L113.24 135.33L112.06 134.02L109.81 131.47L108.72 130.22L106.85 128.01L106.42 127.49L105.68 126.57L105.33 126.13L104.78 125.4L104.53 125.06L104.2 124.55L104 124.08V124.02L104.16 123.75L104.27 123.59L104.63 123.15L105.04 122.67L106.43 121.22L107.21 120.43L109.28 118.43L110.38 117.36L113.03 114.88L114.41 113.58L117.56 110.7L119.18 109.22L122.73 106.02L124.55 104.39L128.42 100.96L134.48 95.64L145.47 86.08L164.69 85.79L167.34 85.75L172.32 85.72L174.72 85.71L178.87 85.73L179.83 85.74L181.52 85.77L182.32 85.79L183.64 85.83L184.25 85.85L185.15 85.91L185.95 86L186.23 86.07L186.91 86.44L187.27 86.67L188.04 87.28L190.24 89.67L190.31 89.78L190.61 90.17L190.78 90.4L191.24 91.01L191.75 91.68L193.25 93.63L194.07 94.7L196.13 97.38L197.22 98.79L199.77 102.09L201.09 103.8L204.04 107.6L205.56 109.56L208.84 113.78L210.51 115.93L214.03 120.46L219.5 127.48L221.36 129.86L224.94 134.48L226.7 136.75L230.05 141.07L231.68 143.18L234.71 147.11L236.18 149.02L238.81 152.46L240.07 154.11L242.23 156.96L243.25 158.3L244.87 160.46L245.6 161.44L246.6 162.81L246.81 163.1L247.09 163.51L247.32 163.87L247.4 164.05L247.31 164.58L247.21 164.89L246.7 165.75L246.39 166.22L245.39 167.48L244.82 168.17L243.26 169.91L242.4 170.85L240.2 173.16L239.01 174.4L236.1 177.36L235.32 178.14L233.62 179.84L232.75 180.72L230.84 182.61L229.86 183.59L227.75 185.68L224.32 189.06L222.68 190.67L219.18 194.12L217.39 195.87L213.69 199.52L209.95 203.2L202.35 210.68L200.47 212.52L196.83 216.1L195.04 217.87L191.65 221.2L190 222.83L186.97 225.8L182.96 229.75L165.43 247H120.73H76.02L70.26 239.71ZM94.35 194.4L93.83 193.77L92.33 191.91L91.5 190.89L89.46 188.32L88.37 186.96L85.88 183.79L84.58 182.15L81.72 178.51L80.26 176.64L77.13 172.63L75.54 170.6L72.23 166.35L68.89 162.06L62.06 153.24L60.36 151.05L57.05 146.76L55.41 144.64L52.27 140.56L50.73 138.56L47.86 134.82L46.46 133L43.95 129.7L42.74 128.12L40.67 125.39L39.7 124.11L38.17 122.06L37.82 121.59L37.24 120.81L36.98 120.45L36.56 119.87L36.38 119.61L36.14 119.27L36 119.01V118.98L36.21 118.72L36.36 118.56L36.85 118.03L37.12 117.73L37.87 116.95L38.27 116.52L39.27 115.5L39.79 114.96L41.02 113.72L41.66 113.07L43.1 111.61L43.84 110.86L45.49 109.21L46.33 108.36L48.16 106.53L50.04 104.65L54.3 100.41L56.5 98.22L61.33 93.44L63.8 91L69.09 85.79L77.4 77.61L118.81 37L163.15 37.02H166.2L172.08 37.03L174.98 37.04L180.46 37.08L183.13 37.1L188.09 37.15L190.48 37.18L194.79 37.24L196.84 37.28L200.37 37.35L202.02 37.39L204.65 37.48L205.25 37.5L206.25 37.55L206.71 37.57L207.45 37.62L207.78 37.64L208.23 37.69L208.57 37.77L208.64 37.82L209.18 38.44L209.51 38.84L210.53 40.09L211.1 40.8L212.53 42.61L213.3 43.59L215.1 45.89L216.04 47.1L218.15 49.82L219.23 51.22L221.59 54.28L222.79 55.85L225.34 59.18L229.32 64.4L249 90.29V114.65V117L248.99 121.1L248.98 123.05L248.94 126.4L248.92 127.98L248.86 130.63L248.83 131.87L248.74 133.88L248.69 134.81L248.57 136.25L248.51 136.9L248.35 137.82L248.27 138.22L248.08 138.69L247.75 138.96L247.66 138.95L247.23 138.6L246.98 138.36L246.24 137.58L245.83 137.14L244.82 135.99L244.29 135.36L243.05 133.88L242.4 133.1L240.97 131.33L240.23 130.41L238.65 128.4L233.5 121.73L232.61 120.54L230.61 117.9L229.58 116.54L227.36 113.61L225.1 110.63L220.25 104.22L217.82 101.01L213.06 94.72L211.91 93.19L209.71 90.29L206.66 86.27L192.83 68H162.34H131.85L105.17 94.18L103.34 95.98L99.82 99.47L98.09 101.19L94.82 104.47L93.23 106.07L90.3 109.06L88.88 110.51L86.35 113.14L85.15 114.4L83.1 116.58L82.14 117.61L80.64 119.28L79.97 120.04L79.09 121.11L78.56 121.97V122.08L78.91 122.74L79.14 123.13L79.91 124.31L80.34 124.96L81.48 126.59L82.09 127.46L83.55 129.49L84.32 130.55L86.06 132.9L86.96 134.12L88.93 136.74L95.49 145.29L112.36 167H119.65H120.68L122.3 167.04L123.06 167.06L124.33 166.99L124.95 166.92L126.15 166.56L126.77 166.33L128.18 165.49L128.94 165L130.85 163.5L131.37 163.08L132.56 162.07L133.18 161.54L134.58 160.31L135.32 159.67L136.98 158.18L137.84 157.41L139.79 155.65L140.81 154.74L143.09 152.69L146.91 149.25L148.63 147.7L151.87 144.88L153.42 143.54L156.1 141.3L156.72 140.79L157.81 139.93L158.33 139.52L159.17 138.89L159.56 138.6L160.13 138.23L160.62 138H160.78L161.5 138.49L161.91 138.81L163.02 139.84L163.61 140.4L164.97 141.82L167.14 144.25L168.61 145.97L171.93 149.77L172.73 150.68L174.18 152.31L175.95 154.26L176.91 155.3L178.64 157.32L179.02 157.79L179.63 158.57L180.21 159.41L180.28 159.53L180.18 159.95L180.09 160.19L179.65 160.85L179.39 161.22L178.61 162.14L178.17 162.64L177.03 163.85L176.4 164.49L174.87 165.99L174.05 166.78L172.12 168.6L171.1 169.55L168.75 171.7L164.74 175.32L162.51 177.31L158.09 181.28L155.93 183.22L151.99 186.77L151.05 187.62L149.35 189.16L148.53 189.9L147.1 191.19L146.43 191.8L145.33 192.81L144.12 193.92L143.11 194.87L141.58 196.16L140.86 196.72L139.54 197.38L138.87 197.65L137.28 197.89L134.03 198H133.64L132.58 198.01L132.01 198.02L130.63 198.05L129.19 198.08L125.61 198.19L123.74 198.25L119.63 198.4L113.38 198.65L98.43 199.29L94.35 194.4Z" fill="#FEFEFF"/>
</svg>
