<svg width="1020" height="284" viewBox="0 0 1020 284" fill="none" xmlns="http://www.w3.org/2000/svg">
<circle cx="142" cy="142" r="142" fill="#269BFE"/>
<path d="M70.26 239.71L69.87 239.21L68.8 237.85L68.23 237.12L66.86 235.35L66.14 234.41L64.52 232.3L63.68 231.21L61.86 228.84L60 226.41L55.93 221.07L49.75 212.92L35 193.41V169.13V166.59L35.01 162.25L35.02 160.19L35.05 156.76L35.07 155.15L35.13 152.54L35.17 151.32L35.26 149.42L35.31 148.55L35.44 147.27L35.51 146.7L35.69 145.94L35.78 145.62L36.01 145.29L36.41 145.18L36.48 145.19L37.07 145.83L37.44 146.24L38.58 147.59L39.21 148.35L40.82 150.33L41.68 151.39L43.7 153.91L44.75 155.23L47.1 158.19L48.3 159.72L50.91 163.04L52.24 164.74L55.04 168.32L56.46 170.14L59.38 173.9L62.32 177.68L68.25 185.39L71.18 189.2L76.68 196.42L78 198.16L80.47 201.43L81.66 203.01L83.82 205.91L84.86 207.3L86.65 209.73L88.83 212.75L91.14 216L121.82 215.95L152.5 215.9L179.81 189.19L207.12 162.48L190.45 140.99L188.16 138.04L183.85 132.55L182.81 131.23L180.87 128.78L179.93 127.59L178.21 125.45L177.38 124.42L175.94 122.63L175.25 121.79L174.13 120.43L173.61 119.81L172.85 118.94L172.2 118.25L171.97 118.07L171.07 117.75L170.55 117.6L169.18 117.36L168.45 117.25L166.75 117.09L164 117H163.26L162.01 117.02L161.41 117.03L160.39 117.09L159.43 117.16L157.99 117.47L157.33 117.66L156.21 118.31L154.44 119.79L152.95 121.2L149.75 124.16L148.12 125.66L144.77 128.66L143.1 130.16L139.78 133.07L138.14 134.49L135.02 137.15L133.51 138.43L130.77 140.69L129.47 141.75L127.29 143.46L126.79 143.85L125.92 144.49L125.51 144.79L124.84 145.25L124.53 145.45L124.08 145.7L123.68 145.83L123.58 145.8L123.2 145.54L122.98 145.37L122.38 144.84L121.73 144.25L119.94 142.46L118.98 141.49L116.75 139.14L115.62 137.93L113.24 135.33L112.06 134.02L109.81 131.47L108.72 130.22L106.85 128.01L106.42 127.49L105.68 126.57L105.33 126.13L104.78 125.4L104.53 125.06L104.2 124.55L104 124.08V124.02L104.16 123.75L104.27 123.59L104.63 123.15L105.04 122.67L106.43 121.22L107.21 120.43L109.28 118.43L110.38 117.36L113.03 114.88L114.41 113.58L117.56 110.7L119.18 109.22L122.73 106.02L124.55 104.39L128.42 100.96L134.48 95.64L145.47 86.08L164.69 85.79L167.34 85.75L172.32 85.72L174.72 85.71L178.87 85.73L179.83 85.74L181.52 85.77L182.32 85.79L183.64 85.83L184.25 85.85L185.15 85.91L185.95 86L186.23 86.07L186.91 86.44L187.27 86.67L188.04 87.28L190.24 89.67L190.31 89.78L190.61 90.17L190.78 90.4L191.24 91.01L191.75 91.68L193.25 93.63L194.07 94.7L196.13 97.38L197.22 98.79L199.77 102.09L201.09 103.8L204.04 107.6L205.56 109.56L208.84 113.78L210.51 115.93L214.03 120.46L219.5 127.48L221.36 129.86L224.94 134.48L226.7 136.75L230.05 141.07L231.68 143.18L234.71 147.11L236.18 149.02L238.81 152.46L240.07 154.11L242.23 156.96L243.25 158.3L244.87 160.46L245.6 161.44L246.6 162.81L246.81 163.1L247.09 163.51L247.32 163.87L247.4 164.05L247.31 164.58L247.21 164.89L246.7 165.75L246.39 166.22L245.39 167.48L244.82 168.17L243.26 169.91L242.4 170.85L240.2 173.16L239.01 174.4L236.1 177.36L235.32 178.14L233.62 179.84L232.75 180.72L230.84 182.61L229.86 183.59L227.75 185.68L224.32 189.06L222.68 190.67L219.18 194.12L217.39 195.87L213.69 199.52L209.95 203.2L202.35 210.68L200.47 212.52L196.83 216.1L195.04 217.87L191.65 221.2L190 222.83L186.97 225.8L182.96 229.75L165.43 247H120.73H76.02L70.26 239.71ZM94.35 194.4L93.83 193.77L92.33 191.91L91.5 190.89L89.46 188.32L88.37 186.96L85.88 183.79L84.58 182.15L81.72 178.51L80.26 176.64L77.13 172.63L75.54 170.6L72.23 166.35L68.89 162.06L62.06 153.24L60.36 151.05L57.05 146.76L55.41 144.64L52.27 140.56L50.73 138.56L47.86 134.82L46.46 133L43.95 129.7L42.74 128.12L40.67 125.39L39.7 124.11L38.17 122.06L37.82 121.59L37.24 120.81L36.98 120.45L36.56 119.87L36.38 119.61L36.14 119.27L36 119.01V118.98L36.21 118.72L36.36 118.56L36.85 118.03L37.12 117.73L37.87 116.95L38.27 116.52L39.27 115.5L39.79 114.96L41.02 113.72L41.66 113.07L43.1 111.61L43.84 110.86L45.49 109.21L46.33 108.36L48.16 106.53L50.04 104.65L54.3 100.41L56.5 98.22L61.33 93.44L63.8 91L69.09 85.79L77.4 77.61L118.81 37L163.15 37.02H166.2L172.08 37.03L174.98 37.04L180.46 37.08L183.13 37.1L188.09 37.15L190.48 37.18L194.79 37.24L196.84 37.28L200.37 37.35L202.02 37.39L204.65 37.48L205.25 37.5L206.25 37.55L206.71 37.57L207.45 37.62L207.78 37.64L208.23 37.69L208.57 37.77L208.64 37.82L209.18 38.44L209.51 38.84L210.53 40.09L211.1 40.8L212.53 42.61L213.3 43.59L215.1 45.89L216.04 47.1L218.15 49.82L219.23 51.22L221.59 54.28L222.79 55.85L225.34 59.18L229.32 64.4L249 90.29V114.65V117L248.99 121.1L248.98 123.05L248.94 126.4L248.92 127.98L248.86 130.63L248.83 131.87L248.74 133.88L248.69 134.81L248.57 136.25L248.51 136.9L248.35 137.82L248.27 138.22L248.08 138.69L247.75 138.96L247.66 138.95L247.23 138.6L246.98 138.36L246.24 137.58L245.83 137.14L244.82 135.99L244.29 135.36L243.05 133.88L242.4 133.1L240.97 131.33L240.23 130.41L238.65 128.4L233.5 121.73L232.61 120.54L230.61 117.9L229.58 116.54L227.36 113.61L225.1 110.63L220.25 104.22L217.82 101.01L213.06 94.72L211.91 93.19L209.71 90.29L206.66 86.27L192.83 68H162.34H131.85L105.17 94.18L103.34 95.98L99.82 99.47L98.09 101.19L94.82 104.47L93.23 106.07L90.3 109.06L88.88 110.51L86.35 113.14L85.15 114.4L83.1 116.58L82.14 117.61L80.64 119.28L79.97 120.04L79.09 121.11L78.56 121.97V122.08L78.91 122.74L79.14 123.13L79.91 124.31L80.34 124.96L81.48 126.59L82.09 127.46L83.55 129.49L84.32 130.55L86.06 132.9L86.96 134.12L88.93 136.74L95.49 145.29L112.36 167H119.65H120.68L122.3 167.04L123.06 167.06L124.33 166.99L124.95 166.92L126.15 166.56L126.77 166.33L128.18 165.49L128.94 165L130.85 163.5L131.37 163.08L132.56 162.07L133.18 161.54L134.58 160.31L135.32 159.67L136.98 158.18L137.84 157.41L139.79 155.65L140.81 154.74L143.09 152.69L146.91 149.25L148.63 147.7L151.87 144.88L153.42 143.54L156.1 141.3L156.72 140.79L157.81 139.93L158.33 139.52L159.17 138.89L159.56 138.6L160.13 138.23L160.62 138H160.78L161.5 138.49L161.91 138.81L163.02 139.84L163.61 140.4L164.97 141.82L167.14 144.25L168.61 145.97L171.93 149.77L172.73 150.68L174.18 152.31L175.95 154.26L176.91 155.3L178.64 157.32L179.02 157.79L179.63 158.57L180.21 159.41L180.28 159.53L180.18 159.95L180.09 160.19L179.65 160.85L179.39 161.22L178.61 162.14L178.17 162.64L177.03 163.85L176.4 164.49L174.87 165.99L174.05 166.78L172.12 168.6L171.1 169.55L168.75 171.7L164.74 175.32L162.51 177.31L158.09 181.28L155.93 183.22L151.99 186.77L151.05 187.62L149.35 189.16L148.53 189.9L147.1 191.19L146.43 191.8L145.33 192.81L144.12 193.92L143.11 194.87L141.58 196.16L140.86 196.72L139.54 197.38L138.87 197.65L137.28 197.89L134.03 198H133.64L132.58 198.01L132.01 198.02L130.63 198.05L129.19 198.08L125.61 198.19L123.74 198.25L119.63 198.4L113.38 198.65L98.43 199.29L94.35 194.4Z" fill="#FEFEFF"/>
<path d="M313.209 144.301H333.345C334.733 152.479 342.603 158.496 355.023 158.496C367.984 158.496 374.851 152.556 374.851 143.915C374.851 136.586 369.604 132.806 358.649 130.26L342.371 126.479C326.016 122.776 315.678 113.364 315.678 97.3945C315.678 78.1074 331.802 65.5322 355.023 65.5322C379.094 65.5322 392.98 79.0332 393.983 95.2344H374.233C372.922 87.6738 366.056 81.8877 354.869 81.8877C343.374 81.8877 336.508 87.8281 336.508 96.0059C336.508 102.332 341.677 106.498 350.935 108.504L367.29 112.284C384.34 116.142 395.604 124.319 395.604 141.986C395.604 161.582 380.56 175.006 353.866 175.006C327.096 175.006 314.135 160.965 313.209 144.301ZM502.84 127.174C502.84 156.876 485.944 175.006 457.785 175.006C429.626 175.006 412.653 156.876 412.653 127.174V113.673C412.653 83.7393 429.626 65.6865 457.785 65.6865C485.944 65.6865 502.84 83.8936 502.84 113.673V127.174ZM481.701 113.519C481.701 93.2285 471.672 83.0449 457.785 83.0449C443.821 83.0449 433.869 93.2285 433.869 113.519V127.251C433.869 147.541 443.821 157.647 457.785 157.647C471.672 157.647 481.701 147.541 481.701 127.251V113.519ZM545.889 173H525.059V67.6924H592.178V84.8965H545.889V114.29H588.166V131.108H545.889V173ZM657.677 173H636.77V132.96L601.513 67.6924H624.657L647.03 112.361H647.879L670.406 67.6924H692.934L657.677 132.574V173ZM699.723 144.301H719.858C721.247 152.479 729.116 158.496 741.537 158.496C754.498 158.496 761.364 152.556 761.364 143.915C761.364 136.586 756.118 132.806 745.163 130.26L728.885 126.479C712.529 122.776 702.191 113.364 702.191 97.3945C702.191 78.1074 718.315 65.5322 741.537 65.5322C765.607 65.5322 779.494 79.0332 780.497 95.2344H760.747C759.436 87.6738 752.569 81.8877 741.383 81.8877C729.888 81.8877 723.021 87.8281 723.021 96.0059C723.021 102.332 728.19 106.498 737.448 108.504L753.804 112.284C770.854 116.142 782.117 124.319 782.117 141.986C782.117 161.582 767.073 175.006 740.38 175.006C713.609 175.006 700.648 160.965 699.723 144.301ZM812.591 173H791.529L826.863 67.6924H851.242L886.422 173H864.28L856.025 145.921H820.846L812.591 173ZM838.976 87.8281H838.05L825.166 130.414H851.859L838.976 87.8281ZM921.602 173H903.009V67.6924H924.225L954.235 136.046H954.93L984.94 67.6924H1006V173H987.178V102.949H986.175L961.256 159.808H947.678L922.604 102.949H921.602V173ZM334.866 247H326.692V205.677H353.03V212.428H334.866V223.962H351.456V230.562H334.866V247ZM394.384 229.018C394.384 240.673 387.754 247.787 376.704 247.787C365.654 247.787 358.994 240.673 358.994 229.018V223.72C358.994 211.974 365.654 204.89 376.704 204.89C387.754 204.89 394.384 212.034 394.384 223.72V229.018ZM386.089 223.659C386.089 215.697 382.153 211.701 376.704 211.701C371.225 211.701 367.319 215.697 367.319 223.659V229.048C367.319 237.01 371.225 240.976 376.704 240.976C382.153 240.976 386.089 237.01 386.089 229.048V223.659ZM419.602 205.677C428.774 205.677 434.103 210.854 434.103 218.755C434.103 224.81 430.349 228.896 426.595 230.35L434.89 247H425.747L418.512 231.591H411.186V247H403.103V205.677H419.602ZM411.186 225.445H418.3C422.841 225.445 425.656 223.266 425.656 218.906C425.656 214.486 422.75 212.095 418.421 212.095H411.186V225.445ZM458.836 247H450.632V212.519H438.916V205.677H470.582V212.519H458.836V247ZM493.257 240.824C498.343 240.824 501.733 237.646 501.733 231.954V205.677H509.938V232.741C509.938 241.793 503.398 247.787 493.257 247.787C483.085 247.787 476.546 241.793 476.546 232.741V205.677H484.75V231.954C484.75 237.706 488.141 240.824 493.257 240.824ZM527.557 247H519.837V205.677H526.679L544.782 233.165H545.115V205.677H552.865V247H546.084L527.89 219.36H527.557V247ZM589.859 240.31V247H563.249V205.677H589.859V212.367H571.362V222.963H588.77V229.229H571.362V240.31H589.859ZM639.387 240.31V247H612.776V205.677H639.387V212.367H620.89V222.963H638.297V229.229H620.89V240.31H639.387ZM656.219 247H648.499V205.677H655.341L673.444 233.165H673.777V205.677H681.527V247H674.746L656.552 219.36H656.219V247ZM707.926 247H699.722V212.519H688.006V205.677H719.672V212.519H707.926V247ZM752.73 240.31V247H726.12V205.677H752.73V212.367H734.233V222.963H751.641V229.229H734.233V240.31H752.73ZM778.342 205.677C787.515 205.677 792.843 210.854 792.843 218.755C792.843 224.81 789.089 228.896 785.335 230.35L793.63 247H784.487L777.252 231.591H769.926V247H761.843V205.677H778.342ZM769.926 225.445H777.04C781.581 225.445 784.396 223.266 784.396 218.906C784.396 214.486 781.49 212.095 777.161 212.095H769.926V225.445ZM818.091 205.677C827.021 205.677 832.047 211.731 832.047 219.451C832.047 227.231 826.961 233.135 818.03 233.135H809.735V247H801.562V205.677H818.091ZM823.722 219.451C823.722 214.819 821.027 212.186 816.517 212.186H809.705V226.717H816.517C821.027 226.717 823.722 224.053 823.722 219.451ZM855.902 205.677C865.075 205.677 870.403 210.854 870.403 218.755C870.403 224.81 866.649 228.896 862.896 230.35L871.19 247H862.048L854.812 231.591H847.486V247H839.403V205.677H855.902ZM847.486 225.445H854.601C859.142 225.445 861.957 223.266 861.957 218.906C861.957 214.486 859.051 212.095 854.722 212.095H847.486V225.445ZM887.296 247H879.122V205.677H887.296V247ZM895.106 235.738H903.008C903.553 238.947 906.641 241.309 911.515 241.309C916.601 241.309 919.295 238.978 919.295 235.587C919.295 232.711 917.236 231.228 912.938 230.229L906.55 228.745C900.132 227.292 896.075 223.599 896.075 217.332C896.075 209.764 902.402 204.829 911.515 204.829C920.96 204.829 926.409 210.127 926.803 216.484H919.053C918.538 213.518 915.844 211.247 911.454 211.247C906.943 211.247 904.249 213.578 904.249 216.787C904.249 219.27 906.277 220.904 909.91 221.691L916.328 223.175C923.019 224.688 927.438 227.897 927.438 234.83C927.438 242.52 921.535 247.787 911.061 247.787C900.556 247.787 895.47 242.277 895.106 235.738ZM962.404 240.31V247H935.794V205.677H962.404V212.367H943.907V222.963H961.314V229.229H943.907V240.31H962.404ZM968.974 235.738H976.875C977.42 238.947 980.508 241.309 985.382 241.309C990.468 241.309 993.162 238.978 993.162 235.587C993.162 232.711 991.104 231.228 986.805 230.229L980.417 228.745C973.999 227.292 969.942 223.599 969.942 217.332C969.942 209.764 976.27 204.829 985.382 204.829C994.827 204.829 1000.28 210.127 1000.67 216.484H992.92C992.405 213.518 989.711 211.247 985.321 211.247C980.811 211.247 978.116 213.578 978.116 216.787C978.116 219.27 980.145 220.904 983.777 221.691L990.195 223.175C996.886 224.688 1001.31 227.897 1001.31 234.83C1001.31 242.52 995.402 247.787 984.928 247.787C974.423 247.787 969.337 242.277 968.974 235.738Z" fill="white"/>
</svg>
